<svg width="19" height="20" viewBox="0 0 19 20" fill="none" xmlns="http://www.w3.org/2000/svg">
<g clip-path="url(#clip0_91_46)">
<path d="M3.87073 7.9775e-06H15.1293C15.2932 7.9775e-06 15.4548 0.0361531 15.6013 0.105581C15.7479 0.175009 15.8754 0.275812 15.9737 0.400008L18.7889 4.00001C18.9259 4.1731 19 4.38364 19 4.60001V17.2C19.0023 17.9395 18.6948 18.6496 18.145 19.1745C17.5953 19.6994 16.8482 19.9963 16.0677 20H2.93235C2.15182 19.9963 1.40473 19.6994 0.854986 19.1745C0.305246 18.6496 -0.00223406 17.9395 1.22215e-05 17.2V4.60001C1.22215e-05 4.38364 0.0740888 4.1731 0.211123 4.00001L3.02207 0.400008C3.12082 0.27527 3.24899 0.174136 3.39634 0.104684C3.5437 0.0352315 3.70615 -0.000614776 3.87073 7.9775e-06ZM14.5983 2.00001H4.40168L2.11112 4.93001V17.2C2.1083 17.4092 2.19318 17.6109 2.34713 17.7609C2.50109 17.9108 2.71155 17.9968 2.93235 18H16.0677C16.2885 17.9968 16.4989 17.9108 16.6529 17.7609C16.8068 17.6109 16.8917 17.4092 16.8889 17.2V4.93001L14.5983 2.00001Z" fill="#AFB2B5"/>
<path d="M17.9444 5.60001H1.05556C0.775605 5.60001 0.50712 5.49465 0.309165 5.30711C0.11121 5.11958 0 4.86522 0 4.60001C0 4.33479 0.11121 4.08044 0.309165 3.8929C0.50712 3.70536 0.775605 3.60001 1.05556 3.60001H17.9444C18.2244 3.60001 18.4929 3.70536 18.6908 3.8929C18.8888 4.08044 19 4.33479 19 4.60001C19 4.86522 18.8888 5.11958 18.6908 5.30711C18.4929 5.49465 18.2244 5.60001 17.9444 5.60001Z" fill="#AFB2B5"/>
<path d="M9.50006 12.8C8.21888 12.7929 6.99301 12.3045 6.09142 11.4422C5.18984 10.5798 4.68618 9.41378 4.69095 8.20001C4.69095 7.9348 4.80216 7.68044 5.00012 7.49291C5.19807 7.30537 5.46656 7.20001 5.74651 7.20001C6.02646 7.20001 6.29494 7.30537 6.4929 7.49291C6.69085 7.68044 6.80206 7.9348 6.80206 8.20001C6.79672 8.88351 7.07778 9.54111 7.58357 10.0285C8.08937 10.516 8.77861 10.7934 9.50006 10.8C10.2213 10.7931 10.9103 10.5156 11.4159 10.0282C11.9214 9.54079 12.2024 8.88334 12.197 8.20001C12.197 7.9348 12.3082 7.68044 12.5062 7.49291C12.7041 7.30537 12.9726 7.20001 13.2526 7.20001C13.3912 7.20001 13.5284 7.22588 13.6565 7.27613C13.7846 7.32639 13.9009 7.40005 13.999 7.49291C14.097 7.58576 14.1747 7.696 14.2278 7.81733C14.2808 7.93865 14.3081 8.06869 14.3081 8.20001C14.3129 9.41361 13.8094 10.5794 12.908 11.4418C12.0067 12.3042 10.7811 12.7926 9.50006 12.8Z" fill="#AFB2B5"/>
</g>
<defs>
<clipPath id="clip0_91_46">
<rect width="19" height="20" fill="white"/>
</clipPath>
</defs>
</svg>
