<svg width="25" height="26" viewBox="0 0 25 26" fill="none" xmlns="http://www.w3.org/2000/svg">
<g clip-path="url(#clip0_142_18)">
<path d="M5.09307 1.03707e-05H19.907C20.1226 1.03707e-05 20.3352 0.046999 20.5281 0.137255C20.7209 0.227511 20.8887 0.358555 21.0181 0.52001L24.7222 5.20001C24.9025 5.42504 25 5.69873 25 5.98001V22.36C25.003 23.3213 24.5984 24.2444 23.875 24.9268C23.1517 25.6092 22.1687 25.9952 21.1417 26H3.85835C2.83134 25.9952 1.84832 25.6092 1.12498 24.9268C0.40164 24.2444 -0.00293955 23.3213 1.6081e-05 22.36V5.98001C1.6081e-05 5.69873 0.0974853 5.42504 0.277794 5.20001L3.9764 0.52001C4.10634 0.357851 4.27498 0.226377 4.46887 0.136089C4.66276 0.0458009 4.87652 -0.000799209 5.09307 1.03707e-05ZM19.2083 2.60001H5.79168L2.77779 6.40901V22.36C2.77408 22.632 2.88576 22.8942 3.08833 23.0891C3.2909 23.2841 3.56783 23.3959 3.85835 23.4H21.1417C21.4322 23.3959 21.7091 23.2841 21.9117 23.0891C22.1143 22.8942 22.2259 22.632 22.2222 22.36V6.40901L19.2083 2.60001Z" fill="#333333"/>
<path d="M23.6111 7.27993H1.38889C1.02053 7.27993 0.667263 7.14297 0.406796 6.89917C0.146329 6.65537 0 6.32471 0 5.97993C0 5.63515 0.146329 5.30449 0.406796 5.06069C0.667263 4.8169 1.02053 4.67993 1.38889 4.67993H23.6111C23.9795 4.67993 24.3327 4.8169 24.5932 5.06069C24.8537 5.30449 25 5.63515 25 5.97993C25 6.32471 24.8537 6.65537 24.5932 6.89917C24.3327 7.14297 23.9795 7.27993 23.6111 7.27993Z" fill="#333333"/>
<path d="M12.4999 16.6401C10.8142 16.6308 9.20118 15.996 8.01489 14.8749C6.82859 13.7538 6.16588 12.238 6.17216 10.6601C6.17216 10.3153 6.31849 9.98467 6.57896 9.74087C6.83943 9.49707 7.1927 9.36011 7.56105 9.36011C7.92941 9.36011 8.28268 9.49707 8.54315 9.74087C8.80361 9.98467 8.94994 10.3153 8.94994 10.6601C8.94291 11.5487 9.31272 12.4035 9.97825 13.0372C10.6438 13.6708 11.5507 14.0315 12.4999 14.0401C13.449 14.0312 14.3555 13.6703 15.0207 13.0367C15.686 12.4031 16.0556 11.5484 16.0486 10.6601C16.0486 10.3153 16.1949 9.98467 16.4553 9.74087C16.7158 9.49707 17.0691 9.36011 17.4374 9.36011C17.6198 9.36011 17.8004 9.39373 17.9689 9.45906C18.1375 9.5244 18.2906 9.62015 18.4195 9.74087C18.5485 9.86158 18.6508 10.0049 18.7206 10.1626C18.7904 10.3203 18.8263 10.4894 18.8263 10.6601C18.8326 12.2378 18.1701 13.7534 16.9841 14.8744C15.7981 15.9955 14.1855 16.6305 12.4999 16.6401Z" fill="#333333"/>
</g>
<defs>
<clipPath id="clip0_142_18">
<rect width="25" height="26" fill="white"/>
</clipPath>
</defs>
</svg>
