<svg width="20" height="20" viewBox="0 0 20 20" fill="none" xmlns="http://www.w3.org/2000/svg">
<g clip-path="url(#clip0_91_51)">
<path d="M9 0C10.78 0 12.5201 0.527841 14.0001 1.51677C15.4802 2.50571 16.6337 3.91131 17.3149 5.55585C17.9961 7.20038 18.1743 9.00998 17.8271 10.7558C17.4798 12.5016 16.6226 14.1053 15.364 15.364C14.1053 16.6226 12.5016 17.4798 10.7558 17.8271C9.00998 18.1743 7.20038 17.9961 5.55585 17.3149C3.91131 16.6337 2.50571 15.4802 1.51677 14.0001C0.527841 12.5201 0 10.78 0 9C0.00264685 6.61386 0.951708 4.32622 2.63896 2.63896C4.32622 0.951708 6.61386 0.00264685 9 0ZM9 16C10.3845 16 11.7378 15.5895 12.889 14.8203C14.0401 14.0511 14.9373 12.9579 15.4672 11.6788C15.997 10.3997 16.1356 8.99224 15.8655 7.63437C15.5954 6.2765 14.9287 5.02922 13.9497 4.05025C12.9708 3.07128 11.7235 2.4046 10.3656 2.1345C9.00776 1.86441 7.6003 2.00303 6.32122 2.53284C5.04213 3.06266 3.94888 3.95986 3.17971 5.11101C2.41054 6.26215 2 7.61553 2 9C2.00212 10.8559 2.7403 12.6351 4.05259 13.9474C5.36489 15.2597 7.14413 15.9979 9 16Z" fill="#AFB2B5"/>
<path d="M18.9999 20C18.7347 19.9999 18.4804 19.8945 18.2929 19.707L13.9429 15.357C13.7555 15.1695 13.6501 14.9152 13.6501 14.65C13.6501 14.3848 13.7555 14.1305 13.9429 13.943C14.1305 13.7555 14.3848 13.6502 14.6499 13.6502C14.9151 13.6502 15.1694 13.7555 15.3569 13.943L19.7069 18.293C19.8467 18.4328 19.9419 18.611 19.9805 18.805C20.0191 18.9989 19.9993 19.1999 19.9236 19.3826C19.8479 19.5653 19.7198 19.7215 19.5554 19.8314C19.391 19.9413 19.1977 20 18.9999 20Z" fill="#AFB2B5"/>
</g>
<defs>
<clipPath id="clip0_91_51">
<rect width="20" height="20" fill="white"/>
</clipPath>
</defs>
</svg>
