<svg width="18" height="20" viewBox="0 0 18 20" fill="none" xmlns="http://www.w3.org/2000/svg">
<g clip-path="url(#clip0_91_55)">
<path d="M16.7538 20C16.4233 20 16.1063 19.8683 15.8726 19.6339C15.6389 19.3995 15.5076 19.0815 15.5076 18.75V16.805C15.5066 16.1055 15.2291 15.4349 14.736 14.9402C14.2429 14.4456 13.5743 14.1673 12.8769 14.1663H5.1231C4.42569 14.1673 3.75713 14.4456 3.26399 14.9402C2.77085 15.4349 2.49337 16.1055 2.49238 16.805V18.75C2.49238 19.0815 2.36109 19.3995 2.12738 19.6339C1.89368 19.8683 1.5767 20 1.24619 20C0.915681 20 0.598708 19.8683 0.365001 19.6339C0.131295 19.3995 0 19.0815 0 18.75V16.805C0.00164893 15.4426 0.541932 14.1365 1.50234 13.1732C2.46275 12.2098 3.76487 11.6679 5.1231 11.6663H12.8769C14.2351 11.6679 15.5372 12.2098 16.4977 13.1732C17.4581 14.1365 17.9984 15.4426 18 16.805V18.75C18 19.0815 17.8687 19.3995 17.635 19.6339C17.4013 19.8683 17.0843 20 16.7538 20Z" fill="#A7A7A7"/>
<path d="M9.00005 0C10.0133 0 11.0038 0.301382 11.8463 0.866036C12.6888 1.43069 13.3454 2.23325 13.7332 3.17224C14.1209 4.11122 14.2224 5.14445 14.0247 6.14127C13.827 7.13809 13.3391 8.05373 12.6226 8.7724C11.9061 9.49106 10.9933 9.98048 9.99952 10.1788C9.00573 10.377 7.97565 10.2753 7.03953 9.88634C6.1034 9.4974 5.30328 8.83875 4.74035 7.99369C4.17742 7.14862 3.87695 6.1551 3.87695 5.13875C3.8786 3.77638 4.41888 2.47028 5.37929 1.50693C6.3397 0.543588 7.64183 0.00165397 9.00005 0ZM9.00005 7.7775C9.52036 7.7775 10.029 7.62274 10.4616 7.33279C10.8942 7.04284 11.2314 6.63072 11.4305 6.14856C11.6296 5.66639 11.6817 5.13582 11.5802 4.62396C11.4787 4.11209 11.2282 3.64191 10.8602 3.27287C10.4923 2.90384 10.0236 2.65252 9.51328 2.5507C9.00297 2.44889 8.47402 2.50114 7.99332 2.70086C7.51262 2.90058 7.10176 3.2388 6.81269 3.67274C6.52363 4.10668 6.36934 4.61685 6.36934 5.13875C6.37033 5.83829 6.64781 6.50889 7.14095 7.00353C7.63409 7.49818 8.30264 7.77651 9.00005 7.7775Z" fill="#A7A7A7"/>
</g>
<defs>
<clipPath id="clip0_91_55">
<rect width="18" height="20" fill="white"/>
</clipPath>
</defs>
</svg>
